<?xml version="1.0" encoding="UTF-8"?>
<svg width="230px" height="55px" viewBox="0 0 230 55" version="1.1" xmlns="http://www.w3.org/2000/svg" xmlns:xlink="http://www.w3.org/1999/xlink">
    <!-- Generator: Sketch 55.1 (78136) - https://sketchapp.com -->
    <title>header</title>
    <desc>Created with Sketch.</desc>
    <g id="website" stroke="none" stroke-width="1" fill="none" fill-rule="evenodd">
        <g id="home" transform="translate(-161.000000, -32.000000)">
            <g id="header" transform="translate(161.000000, 32.000000)">
                <path d="M2.38,44.812 L6.358,44.812 C7.16267069,44.812 7.81433084,44.608002 8.313,44.2 C8.81166916,43.791998 9.061,43.1686709 9.061,42.33 C9.061,41.4913291 8.81166916,40.868002 8.313,40.46 C7.81433084,40.051998 7.16267069,39.848 6.358,39.848 L2.38,39.848 L2.38,44.812 Z M1.224,38.862 L6.613,38.862 C7.15700272,38.862 7.64999779,38.9384992 8.092,39.0915 C8.53400221,39.2445008 8.91366508,39.4711652 9.231,39.7715 C9.54833492,40.0718348 9.79199915,40.4373312 9.962,40.868 C10.1320009,41.2986688 10.217,41.7859973 10.217,42.33 C10.217,42.8740027 10.1320009,43.3613312 9.962,43.792 C9.79199915,44.2226688 9.54833492,44.5881652 9.231,44.8885 C8.91366508,45.1888348 8.53400221,45.4154992 8.092,45.5685 C7.64999779,45.7215008 7.15700272,45.798 6.613,45.798 L2.38,45.798 L2.38,51 L1.224,51 L1.224,38.862 Z M11.4285293,42.228 L12.4145293,42.228 L12.4145293,44.285 L12.4485293,44.285 C12.7205307,43.5709964 13.1426931,43.0213353 13.7150293,42.636 C14.2873655,42.2506647 14.970192,42.0749998 15.7635293,42.109 L15.7635293,43.18 C15.2761935,43.1573332 14.834198,43.2224992 14.4375293,43.3755 C14.0408607,43.5285008 13.6980307,43.7466652 13.4090293,44.03 C13.1200279,44.3133347 12.8961968,44.650498 12.7375293,45.0415 C12.5788618,45.432502 12.4995293,45.860331 12.4995293,46.325 L12.4995293,51 L11.4285293,51 L11.4285293,42.228 Z M19.8820586,42.874 C19.3720561,42.874 18.9243939,42.9816656 18.5390586,43.197 C18.1537233,43.4123344 17.8335599,43.6956649 17.5785586,44.047 C17.3235573,44.3983351 17.1308926,44.7978311 17.0005586,45.2455 C16.8702246,45.6931689 16.8050586,46.149331 16.8050586,46.614 C16.8050586,47.078669 16.8702246,47.5348311 17.0005586,47.9825 C17.1308926,48.4301689 17.3235573,48.8296649 17.5785586,49.181 C17.8335599,49.5323351 18.1537233,49.8156656 18.5390586,50.031 C18.9243939,50.2463344 19.3720561,50.354 19.8820586,50.354 C20.3920612,50.354 20.8397233,50.2463344 21.2250586,50.031 C21.6103939,49.8156656 21.9305573,49.5323351 22.1855586,49.181 C22.4405599,48.8296649 22.6332246,48.4301689 22.7635586,47.9825 C22.8938926,47.5348311 22.9590586,47.078669 22.9590586,46.614 C22.9590586,46.149331 22.8938926,45.6931689 22.7635586,45.2455 C22.6332246,44.7978311 22.4405599,44.3983351 22.1855586,44.047 C21.9305573,43.6956649 21.6103939,43.4123344 21.2250586,43.197 C20.8397233,42.9816656 20.3920612,42.874 19.8820586,42.874 Z M19.8820586,41.973 C20.5507286,41.973 21.1428894,42.0976654 21.6585586,42.347 C22.1742278,42.5963346 22.6077235,42.9306646 22.9590586,43.35 C23.3103937,43.7693354 23.5767244,44.2594972 23.7580586,44.8205 C23.9393928,45.3815028 24.0300586,45.9793302 24.0300586,46.614 C24.0300586,47.2486698 23.9393928,47.8464972 23.7580586,48.4075 C23.5767244,48.9685028 23.3103937,49.4586646 22.9590586,49.878 C22.6077235,50.2973354 22.1742278,50.6288321 21.6585586,50.8725 C21.1428894,51.1161679 20.5507286,51.238 19.8820586,51.238 C19.2133886,51.238 18.6212278,51.1161679 18.1055586,50.8725 C17.5898894,50.6288321 17.1563937,50.2973354 16.8050586,49.878 C16.4537235,49.4586646 16.1873928,48.9685028 16.0060586,48.4075 C15.8247244,47.8464972 15.7340586,47.2486698 15.7340586,46.614 C15.7340586,45.9793302 15.8247244,45.3815028 16.0060586,44.8205 C16.1873928,44.2594972 16.4537235,43.7693354 16.8050586,43.35 C17.1563937,42.9306646 17.5898894,42.5963346 18.1055586,42.347 C18.6212278,42.0976654 19.2133886,41.973 19.8820586,41.973 Z M28.7095879,43.129 L26.9755879,43.129 L26.9755879,51 L25.9045879,51 L25.9045879,43.129 L24.4085879,43.129 L24.4085879,42.228 L25.9045879,42.228 L25.9045879,41.429 C25.9045879,41.0549981 25.932921,40.7093349 25.9895879,40.392 C26.0462549,40.0746651 26.1539204,39.8026678 26.3125879,39.576 C26.4712554,39.3493322 26.6894198,39.1736673 26.9670879,39.049 C27.244756,38.9243327 27.5989191,38.862 28.0295879,38.862 C28.1882554,38.862 28.3355872,38.8676666 28.4715879,38.879 C28.6075886,38.8903334 28.7605871,38.9073332 28.9305879,38.93 L28.9305879,39.848 C28.7832538,39.8253332 28.6472552,39.8055001 28.5225879,39.7885 C28.3979206,39.7714999 28.2732552,39.763 28.1485879,39.763 C27.8539198,39.763 27.6272554,39.8083329 27.4685879,39.899 C27.3099204,39.9896671 27.1937549,40.1114992 27.1200879,40.2645 C27.0464209,40.4175008 27.0039213,40.595999 26.9925879,40.8 C26.9812545,41.004001 26.9755879,41.2249988 26.9755879,41.463 L26.9755879,42.228 L28.7095879,42.228 L28.7095879,43.129 Z M35.7351172,46.002 C35.7237838,45.593998 35.6529512,45.2030019 35.5226172,44.829 C35.3922832,44.4549981 35.2081184,44.1235014 34.9701172,43.8345 C34.732116,43.5454986 34.4431189,43.3131675 34.1031172,43.1375 C33.7631155,42.9618325 33.377786,42.874 32.9471172,42.874 C32.505115,42.874 32.1141189,42.9618325 31.7741172,43.1375 C31.4341155,43.3131675 31.1451184,43.5454986 30.9071172,43.8345 C30.669116,44.1235014 30.4792846,44.4578314 30.3376172,44.8375 C30.1959498,45.2171686 30.1024508,45.6053314 30.0571172,46.002 L35.7351172,46.002 Z M30.0571172,46.903 C30.0571172,47.2883353 30.11095,47.6878313 30.2186172,48.1015 C30.3262844,48.5151687 30.499116,48.8863317 30.7371172,49.215 C30.9751184,49.5436683 31.2754487,49.8156656 31.6381172,50.031 C32.0007857,50.2463344 32.4371146,50.354 32.9471172,50.354 C33.7291211,50.354 34.341115,50.150002 34.7831172,49.742 C35.2251194,49.333998 35.5311164,48.7900034 35.7011172,48.11 L36.7721172,48.11 C36.5454494,49.1073383 36.1289536,49.8779973 35.5226172,50.422 C34.9162808,50.9660027 34.0577894,51.238 32.9471172,51.238 C32.2557804,51.238 31.6579531,51.1161679 31.1536172,50.8725 C30.6492813,50.6288321 30.2384521,50.2945021 29.9211172,49.8695 C29.6037823,49.4444979 29.368618,48.9515028 29.2156172,48.3905 C29.0626164,47.8294972 28.9861172,47.2373365 28.9861172,46.614 C28.9861172,46.0359971 29.0626164,45.4693361 29.2156172,44.914 C29.368618,44.3586639 29.6037823,43.8628355 29.9211172,43.4265 C30.2384521,42.9901645 30.6492813,42.6388347 31.1536172,42.3725 C31.6579531,42.1061653 32.2557804,41.973 32.9471172,41.973 C33.6497874,41.973 34.250448,42.1146653 34.7491172,42.398 C35.2477864,42.6813347 35.652949,43.0524977 35.9646172,43.5115 C36.2762854,43.9705023 36.5001165,44.497497 36.6361172,45.0925 C36.7721179,45.687503 36.828784,46.2909969 36.8061172,46.903 L30.0571172,46.903 Z M43.2026465,44.795 C43.1913131,44.4663317 43.1233138,44.1801679 42.9986465,43.9365 C42.8739792,43.6928321 42.7068142,43.4916675 42.4971465,43.333 C42.2874788,43.1743325 42.0466479,43.058167 41.7746465,42.9845 C41.5026451,42.910833 41.213648,42.874 40.9076465,42.874 C40.6696453,42.874 40.4288144,42.8994997 40.1851465,42.9505 C39.9414786,43.0015003 39.7176475,43.0864994 39.5136465,43.2055 C39.3096455,43.3245006 39.1453138,43.4803324 39.0206465,43.673 C38.8959792,43.8656676 38.8336465,44.1036652 38.8336465,44.387 C38.8336465,44.6250012 38.8931459,44.8261658 39.0121465,44.9905 C39.1311471,45.1548342 39.2813123,45.2936661 39.4626465,45.407 C39.6439807,45.5203339 39.8423121,45.613833 40.0576465,45.6875 C40.2729809,45.761167 40.4713123,45.8206664 40.6526465,45.866 L42.0806465,46.189 C42.386648,46.2343336 42.6898117,46.3164994 42.9901465,46.4355 C43.2904813,46.5545006 43.556812,46.7103324 43.7891465,46.903 C44.021481,47.0956676 44.2113124,47.3336652 44.3586465,47.617 C44.5059806,47.9003347 44.5796465,48.2346647 44.5796465,48.62 C44.5796465,49.0960024 44.4719809,49.501165 44.2566465,49.8355 C44.0413121,50.169835 43.7664815,50.4418323 43.4321465,50.6515 C43.0978115,50.8611677 42.7209819,51.0113329 42.3016465,51.102 C41.8823111,51.1926671 41.4686485,51.238 41.0606465,51.238 C40.029308,51.238 39.193483,50.9943358 38.5531465,50.507 C37.91281,50.0196642 37.5473136,49.2376721 37.4566465,48.161 L38.5276465,48.161 C38.5729801,48.886337 38.8364774,49.4331648 39.3181465,49.8015 C39.7998156,50.1698352 40.3976429,50.354 41.1116465,50.354 C41.3723145,50.354 41.6414784,50.3256669 41.9191465,50.269 C42.1968146,50.212333 42.4546453,50.1160007 42.6926465,49.98 C42.9306477,49.8439993 43.1261457,49.6711677 43.2791465,49.4615 C43.4321473,49.2518323 43.5086465,48.9940015 43.5086465,48.688 C43.5086465,48.427332 43.4548137,48.2091675 43.3471465,48.0335 C43.2394793,47.8578325 43.0949807,47.7105006 42.9136465,47.5915 C42.7323123,47.4724994 42.525481,47.3733337 42.2931465,47.294 C42.060812,47.2146663 41.8256477,47.1466669 41.5876465,47.09 L40.2106465,46.784 C39.8593114,46.6933329 39.5363146,46.5885006 39.2416465,46.4695 C38.9469784,46.3504994 38.6891476,46.2031675 38.4681465,46.0275 C38.2471454,45.8518325 38.0743138,45.6365013 37.9496465,45.3815 C37.8249792,45.1264987 37.7626465,44.8120019 37.7626465,44.438 C37.7626465,43.9959978 37.8618122,43.6163349 38.0601465,43.299 C38.2584808,42.9816651 38.5163116,42.7266676 38.8336465,42.534 C39.1509814,42.3413324 39.5051445,42.1996671 39.8961465,42.109 C40.2871485,42.0183329 40.6753112,41.973 41.0606465,41.973 C41.5026487,41.973 41.9134779,42.0296661 42.2931465,42.143 C42.6728151,42.2563339 43.0071451,42.4319988 43.2961465,42.67 C43.5851479,42.9080012 43.8146457,43.2026649 43.9846465,43.554 C44.1546474,43.9053351 44.2509797,44.3189976 44.2736465,44.795 L43.2026465,44.795 Z M51.0781758,44.795 C51.0668424,44.4663317 50.9988431,44.1801679 50.8741758,43.9365 C50.7495085,43.6928321 50.5823435,43.4916675 50.3726758,43.333 C50.1630081,43.1743325 49.9221772,43.058167 49.6501758,42.9845 C49.3781744,42.910833 49.0891773,42.874 48.7831758,42.874 C48.5451746,42.874 48.3043437,42.8994997 48.0606758,42.9505 C47.8170079,43.0015003 47.5931768,43.0864994 47.3891758,43.2055 C47.1851748,43.3245006 47.0208431,43.4803324 46.8961758,43.673 C46.7715085,43.8656676 46.7091758,44.1036652 46.7091758,44.387 C46.7091758,44.6250012 46.7686752,44.8261658 46.8876758,44.9905 C47.0066764,45.1548342 47.1568416,45.2936661 47.3381758,45.407 C47.51951,45.5203339 47.7178414,45.613833 47.9331758,45.6875 C48.1485102,45.761167 48.3468416,45.8206664 48.5281758,45.866 L49.9561758,46.189 C50.2621773,46.2343336 50.565341,46.3164994 50.8656758,46.4355 C51.1660106,46.5545006 51.4323413,46.7103324 51.6646758,46.903 C51.8970103,47.0956676 52.0868417,47.3336652 52.2341758,47.617 C52.3815099,47.9003347 52.4551758,48.2346647 52.4551758,48.62 C52.4551758,49.0960024 52.3475102,49.501165 52.1321758,49.8355 C51.9168414,50.169835 51.6420108,50.4418323 51.3076758,50.6515 C50.9733408,50.8611677 50.5965112,51.0113329 50.1771758,51.102 C49.7578404,51.1926671 49.3441778,51.238 48.9361758,51.238 C47.9048373,51.238 47.0690123,50.9943358 46.4286758,50.507 C45.7883393,50.0196642 45.4228429,49.2376721 45.3321758,48.161 L46.4031758,48.161 C46.4485094,48.886337 46.7120067,49.4331648 47.1936758,49.8015 C47.6753449,50.1698352 48.2731722,50.354 48.9871758,50.354 C49.2478438,50.354 49.5170077,50.3256669 49.7946758,50.269 C50.0723439,50.212333 50.3301746,50.1160007 50.5681758,49.98 C50.806177,49.8439993 51.001675,49.6711677 51.1546758,49.4615 C51.3076766,49.2518323 51.3841758,48.9940015 51.3841758,48.688 C51.3841758,48.427332 51.330343,48.2091675 51.2226758,48.0335 C51.1150086,47.8578325 50.97051,47.7105006 50.7891758,47.5915 C50.6078416,47.4724994 50.4010103,47.3733337 50.1686758,47.294 C49.9363413,47.2146663 49.701177,47.1466669 49.4631758,47.09 L48.0861758,46.784 C47.7348407,46.6933329 47.4118439,46.5885006 47.1171758,46.4695 C46.8225077,46.3504994 46.5646769,46.2031675 46.3436758,46.0275 C46.1226747,45.8518325 45.9498431,45.6365013 45.8251758,45.3815 C45.7005085,45.1264987 45.6381758,44.8120019 45.6381758,44.438 C45.6381758,43.9959978 45.7373415,43.6163349 45.9356758,43.299 C46.1340101,42.9816651 46.3918409,42.7266676 46.7091758,42.534 C47.0265107,42.3413324 47.3806738,42.1996671 47.7716758,42.109 C48.1626778,42.0183329 48.5508405,41.973 48.9361758,41.973 C49.378178,41.973 49.7890072,42.0296661 50.1686758,42.143 C50.5483444,42.2563339 50.8826744,42.4319988 51.1716758,42.67 C51.4606772,42.9080012 51.690175,43.2026649 51.8601758,43.554 C52.0301767,43.9053351 52.126509,44.3189976 52.1491758,44.795 L51.0781758,44.795 Z M53.7177051,38.862 L54.7887051,38.862 L54.7887051,40.579 L53.7177051,40.579 L53.7177051,38.862 Z M53.7177051,42.228 L54.7887051,42.228 L54.7887051,51 L53.7177051,51 L53.7177051,42.228 Z M60.2502344,42.874 C59.7402319,42.874 59.2925697,42.9816656 58.9072344,43.197 C58.5218991,43.4123344 58.2017357,43.6956649 57.9467344,44.047 C57.6917331,44.3983351 57.4990684,44.7978311 57.3687344,45.2455 C57.2384004,45.6931689 57.1732344,46.149331 57.1732344,46.614 C57.1732344,47.078669 57.2384004,47.5348311 57.3687344,47.9825 C57.4990684,48.4301689 57.6917331,48.8296649 57.9467344,49.181 C58.2017357,49.5323351 58.5218991,49.8156656 58.9072344,50.031 C59.2925697,50.2463344 59.7402319,50.354 60.2502344,50.354 C60.760237,50.354 61.2078991,50.2463344 61.5932344,50.031 C61.9785697,49.8156656 62.2987331,49.5323351 62.5537344,49.181 C62.8087357,48.8296649 63.0014004,48.4301689 63.1317344,47.9825 C63.2620684,47.5348311 63.3272344,47.078669 63.3272344,46.614 C63.3272344,46.149331 63.2620684,45.6931689 63.1317344,45.2455 C63.0014004,44.7978311 62.8087357,44.3983351 62.5537344,44.047 C62.2987331,43.6956649 61.9785697,43.4123344 61.5932344,43.197 C61.2078991,42.9816656 60.760237,42.874 60.2502344,42.874 Z M60.2502344,41.973 C60.9189044,41.973 61.5110652,42.0976654 62.0267344,42.347 C62.5424036,42.5963346 62.9758993,42.9306646 63.3272344,43.35 C63.6785695,43.7693354 63.9449002,44.2594972 64.1262344,44.8205 C64.3075686,45.3815028 64.3982344,45.9793302 64.3982344,46.614 C64.3982344,47.2486698 64.3075686,47.8464972 64.1262344,48.4075 C63.9449002,48.9685028 63.6785695,49.4586646 63.3272344,49.878 C62.9758993,50.2973354 62.5424036,50.6288321 62.0267344,50.8725 C61.5110652,51.1161679 60.9189044,51.238 60.2502344,51.238 C59.5815644,51.238 58.9894036,51.1161679 58.4737344,50.8725 C57.9580652,50.6288321 57.5245695,50.2973354 57.1732344,49.878 C56.8218993,49.4586646 56.5555686,48.9685028 56.3742344,48.4075 C56.1929002,47.8464972 56.1022344,47.2486698 56.1022344,46.614 C56.1022344,45.9793302 56.1929002,45.3815028 56.3742344,44.8205 C56.5555686,44.2594972 56.8218993,43.7693354 57.1732344,43.35 C57.5245695,42.9306646 57.9580652,42.5963346 58.4737344,42.347 C58.9894036,42.0976654 59.5815644,41.973 60.2502344,41.973 Z M65.6777637,42.228 L66.7487637,42.228 L66.7487637,43.741 L66.7827637,43.741 C66.9867647,43.2083307 67.3494278,42.7805016 67.8707637,42.4575 C68.3920996,42.1344984 68.9644273,41.973 69.5877637,41.973 C70.1997668,41.973 70.712595,42.0523325 71.1262637,42.211 C71.5399324,42.3696675 71.8714291,42.5934986 72.1207637,42.8825 C72.3700983,43.1715014 72.5457632,43.5256646 72.6477637,43.945 C72.7497642,44.3643354 72.8007637,44.8346641 72.8007637,45.356 L72.8007637,51 L71.7297637,51 L71.7297637,45.526 C71.7297637,45.1519981 71.695764,44.8035016 71.6277637,44.4805 C71.5597634,44.1574984 71.4407646,43.8770012 71.2707637,43.639 C71.1007629,43.4009988 70.8712651,43.2140007 70.5822637,43.078 C70.2932623,42.9419993 69.9334325,42.874 69.5027637,42.874 C69.0720949,42.874 68.6895987,42.9504992 68.3552637,43.1035 C68.0209287,43.2565008 67.7375982,43.4661653 67.5052637,43.7325 C67.2729292,43.9988347 67.0915977,44.3161648 66.9612637,44.6845 C66.8309297,45.0528352 66.7600971,45.4523312 66.7487637,45.883 L66.7487637,51 L65.6777637,51 L65.6777637,42.228 Z M74.420293,44.914 C74.4542932,44.4039974 74.5619588,43.9620019 74.743293,43.588 C74.9246272,43.2139981 75.1711248,42.9080012 75.482793,42.67 C75.7944612,42.4319988 76.1599576,42.2563339 76.579293,42.143 C76.9986284,42.0296661 77.4632905,41.973 77.973293,41.973 C78.3586283,41.973 78.7439577,42.009833 79.129293,42.0835 C79.5146283,42.157167 79.8602915,42.295999 80.166293,42.5 C80.4722945,42.704001 80.7216254,42.9901648 80.914293,43.3585 C81.1069606,43.7268352 81.203293,44.2056637 81.203293,44.795 L81.203293,49.453 C81.203293,49.8836688 81.4129576,50.099 81.832293,50.099 C81.9569603,50.099 82.0702925,50.0763336 82.172293,50.031 L82.172293,50.932 C82.0476257,50.9546668 81.9371268,50.9716666 81.840793,50.983 C81.7444592,50.9943334 81.6226271,51 81.475293,51 C81.2032916,51 80.9851272,50.963167 80.820793,50.8895 C80.6564588,50.815833 80.5289601,50.7110007 80.438293,50.575 C80.3476259,50.4389993 80.2881265,50.2775009 80.259793,50.0905 C80.2314595,49.9034991 80.217293,49.6966678 80.217293,49.47 L80.183293,49.47 C79.9906254,49.7533348 79.7951273,50.0054989 79.596793,50.2265 C79.3984587,50.4475011 79.1774609,50.6316659 78.933793,50.779 C78.6901251,50.9263341 78.4124612,51.0396663 78.100793,51.119 C77.7891248,51.1983337 77.4179618,51.238 76.987293,51.238 C76.579291,51.238 76.1967948,51.1898338 75.839793,51.0935 C75.4827912,50.9971662 75.1711277,50.8441677 74.904793,50.6345 C74.6384583,50.4248323 74.4287938,50.1585016 74.275793,49.8355 C74.1227922,49.5124984 74.046293,49.1300022 74.046293,48.688 C74.046293,48.0759969 74.1822916,47.5971684 74.454293,47.2515 C74.7262944,46.9058316 75.0861241,46.6423342 75.533793,46.461 C75.9814619,46.2796658 76.4857902,46.152167 77.046793,46.0785 C77.6077958,46.004833 78.1772901,45.9340003 78.755293,45.866 C78.9819608,45.8433332 79.1802922,45.8150002 79.350293,45.781 C79.5202939,45.7469998 79.6619591,45.6875004 79.775293,45.6025 C79.8886269,45.5174996 79.9764594,45.4013341 80.038793,45.254 C80.1011266,45.1066659 80.132293,44.9140012 80.132293,44.676 C80.132293,44.3133315 80.0727936,44.0158345 79.953793,43.7835 C79.8347924,43.5511655 79.6704607,43.3670007 79.460793,43.231 C79.2511253,43.0949993 79.0074611,43.0015003 78.729793,42.9505 C78.4521249,42.8994997 78.1546279,42.874 77.837293,42.874 C77.1572896,42.874 76.6019618,43.0354984 76.171293,43.3585 C75.7406242,43.6815016 75.5139598,44.1999964 75.491293,44.914 L74.420293,44.914 Z M80.132293,46.206 L80.098293,46.206 C80.0302927,46.3306673 79.8999606,46.4213331 79.707293,46.478 C79.5146254,46.534667 79.3446271,46.5743332 79.197293,46.597 C78.7439574,46.6763337 78.2764621,46.7471664 77.794793,46.8095 C77.3131239,46.8718336 76.8739616,46.9653327 76.477293,47.09 C76.0806244,47.2146673 75.7547943,47.3931655 75.499793,47.6255 C75.2447917,47.8578345 75.117293,48.1893312 75.117293,48.62 C75.117293,48.8920014 75.1711258,49.1328323 75.278793,49.3425 C75.3864602,49.5521677 75.5309588,49.7334992 75.712293,49.8865 C75.8936272,50.0395008 76.1032918,50.1556663 76.341293,50.235 C76.5792942,50.3143337 76.8229584,50.354 77.072293,50.354 C77.480295,50.354 77.8712911,50.2916673 78.245293,50.167 C78.6192949,50.0423327 78.9451249,49.8610012 79.222793,49.623 C79.5004611,49.3849988 79.7214588,49.0960017 79.885793,48.756 C80.0501272,48.4159983 80.132293,48.0306688 80.132293,47.6 L80.132293,46.206 Z M83.0608223,38.862 L84.1318223,38.862 L84.1318223,51 L83.0608223,51 L83.0608223,38.862 Z M90.3968809,38.862 L91.5528809,38.862 L91.5528809,46.376 C91.5528809,47.0786702 91.6322134,47.6764975 91.7908809,48.1695 C91.9495484,48.6625025 92.1818794,49.0648318 92.4878809,49.3765 C92.7938824,49.6881682 93.1678787,49.9148326 93.6098809,50.0565 C94.0518831,50.1981674 94.5505448,50.269 95.1058809,50.269 C95.6725504,50.269 96.1768787,50.1981674 96.6188809,50.0565 C97.0608831,49.9148326 97.4348794,49.6881682 97.7408809,49.3765 C98.0468824,49.0648318 98.2792134,48.6625025 98.4378809,48.1695 C98.5965484,47.6764975 98.6758809,47.0786702 98.6758809,46.376 L98.6758809,38.862 L99.8318809,38.862 L99.8318809,46.631 C99.8318809,47.2543364 99.7440484,47.8464972 99.5683809,48.4075 C99.3927134,48.9685028 99.1150495,49.4586646 98.7353809,49.878 C98.3557123,50.2973354 97.8683839,50.6288321 97.2733809,50.8725 C96.6783779,51.1161679 95.9558852,51.238 95.1058809,51.238 C94.26721,51.238 93.5503839,51.1161679 92.9553809,50.8725 C92.3603779,50.6288321 91.8730495,50.2973354 91.4933809,49.878 C91.1137123,49.4586646 90.8360484,48.9685028 90.6603809,48.4075 C90.4847134,47.8464972 90.3968809,47.2543364 90.3968809,46.631 L90.3968809,38.862 Z M101.94441,38.862 L103.10041,38.862 L103.10041,51 L101.94441,51 L101.94441,38.862 Z M109.552469,38.862 L110.623469,38.862 L110.623469,46.478 L115.485469,42.228 L116.913469,42.228 L113.173469,45.475 L117.168469,51 L115.825469,51 L112.357469,46.223 L110.623469,47.668 L110.623469,51 L109.552469,51 L109.552469,38.862 Z M117.767998,38.862 L118.838998,38.862 L118.838998,40.579 L117.767998,40.579 L117.767998,38.862 Z M117.767998,42.228 L118.838998,42.228 L118.838998,51 L117.767998,51 L117.767998,42.228 Z M122.294527,42.228 L124.079527,42.228 L124.079527,43.129 L122.294527,43.129 L122.294527,49.045 C122.294527,49.3963351 122.342694,49.6711657 122.439027,49.8695 C122.535361,50.0678343 122.776192,50.1783332 123.161527,50.201 C123.467529,50.201 123.773526,50.1840002 124.079527,50.15 L124.079527,51.051 C123.92086,51.051 123.762195,51.0566666 123.603527,51.068 C123.44486,51.0793334 123.286195,51.085 123.127527,51.085 C122.413524,51.085 121.914862,50.9461681 121.631527,50.6685 C121.348193,50.3908319 121.212194,49.8780037 121.223527,49.13 L121.223527,43.129 L119.693527,43.129 L119.693527,42.228 L121.223527,42.228 L121.223527,39.593 L122.294527,39.593 L122.294527,42.228 Z M130.578057,44.795 C130.566723,44.4663317 130.498724,44.1801679 130.374057,43.9365 C130.249389,43.6928321 130.082224,43.4916675 129.872557,43.333 C129.662889,43.1743325 129.422058,43.058167 129.150057,42.9845 C128.878055,42.910833 128.589058,42.874 128.283057,42.874 C128.045056,42.874 127.804225,42.8994997 127.560557,42.9505 C127.316889,43.0015003 127.093058,43.0864994 126.889057,43.2055 C126.685056,43.3245006 126.520724,43.4803324 126.396057,43.673 C126.271389,43.8656676 126.209057,44.1036652 126.209057,44.387 C126.209057,44.6250012 126.268556,44.8261658 126.387557,44.9905 C126.506557,45.1548342 126.656722,45.2936661 126.838057,45.407 C127.019391,45.5203339 127.217722,45.613833 127.433057,45.6875 C127.648391,45.761167 127.846722,45.8206664 128.028057,45.866 L129.456057,46.189 C129.762058,46.2343336 130.065222,46.3164994 130.365557,46.4355 C130.665892,46.5545006 130.932222,46.7103324 131.164557,46.903 C131.396891,47.0956676 131.586723,47.3336652 131.734057,47.617 C131.881391,47.9003347 131.955057,48.2346647 131.955057,48.62 C131.955057,49.0960024 131.847391,49.501165 131.632057,49.8355 C131.416722,50.169835 131.141892,50.4418323 130.807557,50.6515 C130.473222,50.8611677 130.096392,51.0113329 129.677057,51.102 C129.257721,51.1926671 128.844059,51.238 128.436057,51.238 C127.404718,51.238 126.568893,50.9943358 125.928557,50.507 C125.28822,50.0196642 124.922724,49.2376721 124.832057,48.161 L125.903057,48.161 C125.94839,48.886337 126.211888,49.4331648 126.693557,49.8015 C127.175226,50.1698352 127.773053,50.354 128.487057,50.354 C128.747725,50.354 129.016889,50.3256669 129.294557,50.269 C129.572225,50.212333 129.830056,50.1160007 130.068057,49.98 C130.306058,49.8439993 130.501556,49.6711677 130.654557,49.4615 C130.807557,49.2518323 130.884057,48.9940015 130.884057,48.688 C130.884057,48.427332 130.830224,48.2091675 130.722557,48.0335 C130.614889,47.8578325 130.470391,47.7105006 130.289057,47.5915 C130.107722,47.4724994 129.900891,47.3733337 129.668557,47.294 C129.436222,47.2146663 129.201058,47.1466669 128.963057,47.09 L127.586057,46.784 C127.234722,46.6933329 126.911725,46.5885006 126.617057,46.4695 C126.322389,46.3504994 126.064558,46.2031675 125.843557,46.0275 C125.622556,45.8518325 125.449724,45.6365013 125.325057,45.3815 C125.200389,45.1264987 125.138057,44.8120019 125.138057,44.438 C125.138057,43.9959978 125.237222,43.6163349 125.435557,43.299 C125.633891,42.9816651 125.891722,42.7266676 126.209057,42.534 C126.526392,42.3413324 126.880555,42.1996671 127.271557,42.109 C127.662559,42.0183329 128.050721,41.973 128.436057,41.973 C128.878059,41.973 129.288888,42.0296661 129.668557,42.143 C130.048225,42.2563339 130.382555,42.4319988 130.671557,42.67 C130.960558,42.9080012 131.190056,43.2026649 131.360057,43.554 C131.530058,43.9053351 131.62639,44.3189976 131.649057,44.795 L130.578057,44.795 Z M141.008115,43.129 L139.274115,43.129 L139.274115,51 L138.203115,51 L138.203115,43.129 L136.707115,43.129 L136.707115,42.228 L138.203115,42.228 L138.203115,41.429 C138.203115,41.0549981 138.231448,40.7093349 138.288115,40.392 C138.344782,40.0746651 138.452448,39.8026678 138.611115,39.576 C138.769783,39.3493322 138.987947,39.1736673 139.265615,39.049 C139.543283,38.9243327 139.897446,38.862 140.328115,38.862 C140.486783,38.862 140.634115,38.8676666 140.770115,38.879 C140.906116,38.8903334 141.059114,38.9073332 141.229115,38.93 L141.229115,39.848 C141.081781,39.8253332 140.945783,39.8055001 140.821115,39.7885 C140.696448,39.7714999 140.571783,39.763 140.447115,39.763 C140.152447,39.763 139.925783,39.8083329 139.767115,39.899 C139.608448,39.9896671 139.492282,40.1114992 139.418615,40.2645 C139.344948,40.4175008 139.302449,40.595999 139.291115,40.8 C139.279782,41.004001 139.274115,41.2249988 139.274115,41.463 L139.274115,42.228 L141.008115,42.228 L141.008115,43.129 Z M145.432645,42.874 C144.922642,42.874 144.47498,42.9816656 144.089645,43.197 C143.704309,43.4123344 143.384146,43.6956649 143.129145,44.047 C142.874143,44.3983351 142.681479,44.7978311 142.551145,45.2455 C142.420811,45.6931689 142.355645,46.149331 142.355645,46.614 C142.355645,47.078669 142.420811,47.5348311 142.551145,47.9825 C142.681479,48.4301689 142.874143,48.8296649 143.129145,49.181 C143.384146,49.5323351 143.704309,49.8156656 144.089645,50.031 C144.47498,50.2463344 144.922642,50.354 145.432645,50.354 C145.942647,50.354 146.390309,50.2463344 146.775645,50.031 C147.16098,49.8156656 147.481143,49.5323351 147.736145,49.181 C147.991146,48.8296649 148.183811,48.4301689 148.314145,47.9825 C148.444479,47.5348311 148.509645,47.078669 148.509645,46.614 C148.509645,46.149331 148.444479,45.6931689 148.314145,45.2455 C148.183811,44.7978311 147.991146,44.3983351 147.736145,44.047 C147.481143,43.6956649 147.16098,43.4123344 146.775645,43.197 C146.390309,42.9816656 145.942647,42.874 145.432645,42.874 Z M145.432645,41.973 C146.101315,41.973 146.693475,42.0976654 147.209145,42.347 C147.724814,42.5963346 148.15831,42.9306646 148.509645,43.35 C148.86098,43.7693354 149.12731,44.2594972 149.308645,44.8205 C149.489979,45.3815028 149.580645,45.9793302 149.580645,46.614 C149.580645,47.2486698 149.489979,47.8464972 149.308645,48.4075 C149.12731,48.9685028 148.86098,49.4586646 148.509645,49.878 C148.15831,50.2973354 147.724814,50.6288321 147.209145,50.8725 C146.693475,51.1161679 146.101315,51.238 145.432645,51.238 C144.763975,51.238 144.171814,51.1161679 143.656145,50.8725 C143.140475,50.6288321 142.70698,50.2973354 142.355645,49.878 C142.00431,49.4586646 141.737979,48.9685028 141.556645,48.4075 C141.37531,47.8464972 141.284645,47.2486698 141.284645,46.614 C141.284645,45.9793302 141.37531,45.3815028 141.556645,44.8205 C141.737979,44.2594972 142.00431,43.7693354 142.355645,43.35 C142.70698,42.9306646 143.140475,42.5963346 143.656145,42.347 C144.171814,42.0976654 144.763975,41.973 145.432645,41.973 Z M150.877174,42.228 L151.863174,42.228 L151.863174,44.285 L151.897174,44.285 C152.169175,43.5709964 152.591338,43.0213353 153.163674,42.636 C153.73601,42.2506647 154.418837,42.0749998 155.212174,42.109 L155.212174,43.18 C154.724838,43.1573332 154.282843,43.2224992 153.886174,43.3755 C153.489505,43.5285008 153.146675,43.7466652 152.857674,44.03 C152.568672,44.3133347 152.344841,44.650498 152.186174,45.0415 C152.027506,45.432502 151.948174,45.860331 151.948174,46.325 L151.948174,51 L150.877174,51 L150.877174,42.228 Z M160.559233,38.862 L164.758233,38.862 C166.605575,38.9073336 167.996728,39.4258284 168.931733,40.4175 C169.866737,41.4091716 170.334233,42.9136566 170.334233,44.931 C170.334233,46.9483434 169.866737,48.4528284 168.931733,49.4445 C167.996728,50.4361716 166.605575,50.9546664 164.758233,51 L160.559233,51 L160.559233,38.862 Z M161.715233,50.014 L164.180233,50.014 C165.052904,50.014 165.803729,49.9205009 166.432733,49.7335 C167.061736,49.5464991 167.58023,49.249002 167.988233,48.841 C168.396235,48.432998 168.696565,47.9060032 168.889233,47.26 C169.0819,46.6139968 169.178233,45.8376712 169.178233,44.931 C169.178233,44.0243288 169.0819,43.2480032 168.889233,42.602 C168.696565,41.9559968 168.396235,41.429002 167.988233,41.021 C167.58023,40.612998 167.061736,40.3155009 166.432733,40.1285 C165.803729,39.9414991 165.052904,39.848 164.180233,39.848 L161.715233,39.848 L161.715233,50.014 Z M178.005762,46.002 C177.994428,45.593998 177.923596,45.2030019 177.793262,44.829 C177.662928,44.4549981 177.478763,44.1235014 177.240762,43.8345 C177.002761,43.5454986 176.713764,43.3131675 176.373762,43.1375 C176.03376,42.9618325 175.648431,42.874 175.217762,42.874 C174.77576,42.874 174.384764,42.9618325 174.044762,43.1375 C173.70476,43.3131675 173.415763,43.5454986 173.177762,43.8345 C172.939761,44.1235014 172.749929,44.4578314 172.608262,44.8375 C172.466594,45.2171686 172.373095,45.6053314 172.327762,46.002 L178.005762,46.002 Z M172.327762,46.903 C172.327762,47.2883353 172.381595,47.6878313 172.489262,48.1015 C172.596929,48.5151687 172.769761,48.8863317 173.007762,49.215 C173.245763,49.5436683 173.546093,49.8156656 173.908762,50.031 C174.27143,50.2463344 174.707759,50.354 175.217762,50.354 C175.999766,50.354 176.61176,50.150002 177.053762,49.742 C177.495764,49.333998 177.801761,48.7900034 177.971762,48.11 L179.042762,48.11 C178.816094,49.1073383 178.399598,49.8779973 177.793262,50.422 C177.186925,50.9660027 176.328434,51.238 175.217762,51.238 C174.526425,51.238 173.928598,51.1161679 173.424262,50.8725 C172.919926,50.6288321 172.509097,50.2945021 172.191762,49.8695 C171.874427,49.4444979 171.639263,48.9515028 171.486262,48.3905 C171.333261,47.8294972 171.256762,47.2373365 171.256762,46.614 C171.256762,46.0359971 171.333261,45.4693361 171.486262,44.914 C171.639263,44.3586639 171.874427,43.8628355 172.191762,43.4265 C172.509097,42.9901645 172.919926,42.6388347 173.424262,42.3725 C173.928598,42.1061653 174.526425,41.973 175.217762,41.973 C175.920432,41.973 176.521093,42.1146653 177.019762,42.398 C177.518431,42.6813347 177.923594,43.0524977 178.235262,43.5115 C178.54693,43.9705023 178.770761,44.497497 178.906762,45.0925 C179.042762,45.687503 179.099429,46.2909969 179.076762,46.903 L172.327762,46.903 Z M185.473291,44.795 C185.461958,44.4663317 185.393958,44.1801679 185.269291,43.9365 C185.144624,43.6928321 184.977459,43.4916675 184.767791,43.333 C184.558123,43.1743325 184.317292,43.058167 184.045291,42.9845 C183.77329,42.910833 183.484293,42.874 183.178291,42.874 C182.94029,42.874 182.699459,42.8994997 182.455791,42.9505 C182.212123,43.0015003 181.988292,43.0864994 181.784291,43.2055 C181.58029,43.3245006 181.415958,43.4803324 181.291291,43.673 C181.166624,43.8656676 181.104291,44.1036652 181.104291,44.387 C181.104291,44.6250012 181.163791,44.8261658 181.282791,44.9905 C181.401792,45.1548342 181.551957,45.2936661 181.733291,45.407 C181.914625,45.5203339 182.112957,45.613833 182.328291,45.6875 C182.543626,45.761167 182.741957,45.8206664 182.923291,45.866 L184.351291,46.189 C184.657293,46.2343336 184.960456,46.3164994 185.260791,46.4355 C185.561126,46.5545006 185.827457,46.7103324 186.059791,46.903 C186.292126,47.0956676 186.481957,47.3336652 186.629291,47.617 C186.776625,47.9003347 186.850291,48.2346647 186.850291,48.62 C186.850291,49.0960024 186.742626,49.501165 186.527291,49.8355 C186.311957,50.169835 186.037126,50.4418323 185.702791,50.6515 C185.368456,50.8611677 184.991627,51.0113329 184.572291,51.102 C184.152956,51.1926671 183.739293,51.238 183.331291,51.238 C182.299953,51.238 181.464128,50.9943358 180.823791,50.507 C180.183455,50.0196642 179.817958,49.2376721 179.727291,48.161 L180.798291,48.161 C180.843625,48.886337 181.107122,49.4331648 181.588791,49.8015 C182.07046,50.1698352 182.668288,50.354 183.382291,50.354 C183.642959,50.354 183.912123,50.3256669 184.189791,50.269 C184.467459,50.212333 184.72529,50.1160007 184.963291,49.98 C185.201292,49.8439993 185.39679,49.6711677 185.549791,49.4615 C185.702792,49.2518323 185.779291,48.9940015 185.779291,48.688 C185.779291,48.427332 185.725458,48.2091675 185.617791,48.0335 C185.510124,47.8578325 185.365625,47.7105006 185.184291,47.5915 C185.002957,47.4724994 184.796126,47.3733337 184.563791,47.294 C184.331457,47.2146663 184.096292,47.1466669 183.858291,47.09 L182.481291,46.784 C182.129956,46.6933329 181.806959,46.5885006 181.512291,46.4695 C181.217623,46.3504994 180.959792,46.2031675 180.738791,46.0275 C180.51779,45.8518325 180.344958,45.6365013 180.220291,45.3815 C180.095624,45.1264987 180.033291,44.8120019 180.033291,44.438 C180.033291,43.9959978 180.132457,43.6163349 180.330791,43.299 C180.529125,42.9816651 180.786956,42.7266676 181.104291,42.534 C181.421626,42.3413324 181.775789,42.1996671 182.166791,42.109 C182.557793,42.0183329 182.945956,41.973 183.331291,41.973 C183.773293,41.973 184.184123,42.0296661 184.563791,42.143 C184.94346,42.2563339 185.27779,42.4319988 185.566791,42.67 C185.855793,42.9080012 186.08529,43.2026649 186.255291,43.554 C186.425292,43.9053351 186.521624,44.3189976 186.544291,44.795 L185.473291,44.795 Z M188.11282,38.862 L189.18382,38.862 L189.18382,40.579 L188.11282,40.579 L188.11282,38.862 Z M188.11282,42.228 L189.18382,42.228 L189.18382,51 L188.11282,51 L188.11282,42.228 Z M198.35135,50.286 C198.35135,50.9320032 198.280517,51.5156641 198.13885,52.037 C197.997182,52.5583359 197.773351,53.0003315 197.46735,53.363 C197.161348,53.7256685 196.761852,54.0033324 196.26885,54.196 C195.775847,54.3886676 195.172353,54.485 194.45835,54.485 C194.016347,54.485 193.585685,54.4340005 193.16635,54.332 C192.747014,54.2299995 192.370185,54.0713344 192.03585,53.856 C191.701515,53.6406656 191.423851,53.365835 191.20285,53.0315 C190.981849,52.697165 190.85435,52.297669 190.82035,51.833 L191.89135,51.833 C191.948017,52.1616683 192.058516,52.4364989 192.22285,52.6575 C192.387184,52.8785011 192.585515,53.0569993 192.81785,53.193 C193.050184,53.3290007 193.308015,53.4281664 193.59135,53.4905 C193.874684,53.5528336 194.163682,53.584 194.45835,53.584 C195.455688,53.584 196.175347,53.3006695 196.61735,52.734 C197.059352,52.1673305 197.28035,51.3513387 197.28035,50.286 L197.28035,49.096 L197.24635,49.096 C196.997015,49.6400027 196.631519,50.0763317 196.14985,50.405 C195.668181,50.7336683 195.104353,50.898 194.45835,50.898 C193.75568,50.898 193.155019,50.7818345 192.65635,50.5495 C192.157681,50.3171655 191.746851,49.997002 191.42385,49.589 C191.100848,49.180998 190.865684,48.7021694 190.71835,48.1525 C190.571016,47.6028306 190.49735,47.0163364 190.49735,46.393 C190.49735,45.7923303 190.585182,45.222836 190.76085,44.6845 C190.936517,44.146164 191.191515,43.6758353 191.52585,43.2735 C191.860185,42.8711647 192.273847,42.5538345 192.76685,42.3215 C193.259852,42.0891655 193.82368,41.973 194.45835,41.973 C194.787018,41.973 195.095848,42.0183329 195.38485,42.109 C195.673851,42.1996671 195.937349,42.3271658 196.17535,42.4915 C196.413351,42.6558342 196.625849,42.8456656 196.81285,43.061 C196.999851,43.2763344 197.144349,43.5029988 197.24635,43.741 L197.28035,43.741 L197.28035,42.228 L198.35135,42.228 L198.35135,50.286 Z M194.45835,49.997 C194.923019,49.997 195.331015,49.8978343 195.68235,49.6995 C196.033685,49.5011657 196.328349,49.2405016 196.56635,48.9175 C196.804351,48.5944984 196.982849,48.2233354 197.10185,47.804 C197.22085,47.3846646 197.28035,46.9540022 197.28035,46.512 C197.28035,46.0813312 197.22935,45.6506688 197.12735,45.22 C197.025349,44.7893312 196.861018,44.3983351 196.63435,44.047 C196.407682,43.6956649 196.115851,43.4123344 195.75885,43.197 C195.401848,42.9816656 194.968352,42.874 194.45835,42.874 C193.948347,42.874 193.512018,42.9788323 193.14935,43.1885 C192.786681,43.3981677 192.486351,43.6729983 192.24835,44.013 C192.010349,44.3530017 191.837517,44.7411645 191.72985,45.1775 C191.622182,45.6138355 191.56835,46.0586644 191.56835,46.512 C191.56835,46.9540022 191.625016,47.3846646 191.73835,47.804 C191.851684,48.2233354 192.027349,48.5944984 192.26535,48.9175 C192.503351,49.2405016 192.803681,49.5011657 193.16635,49.6995 C193.529018,49.8978343 193.959681,49.997 194.45835,49.997 Z M200.072879,42.228 L201.143879,42.228 L201.143879,43.741 L201.177879,43.741 C201.38188,43.2083307 201.744543,42.7805016 202.265879,42.4575 C202.787215,42.1344984 203.359543,41.973 203.982879,41.973 C204.594882,41.973 205.10771,42.0523325 205.521379,42.211 C205.935048,42.3696675 206.266544,42.5934986 206.515879,42.8825 C206.765214,43.1715014 206.940878,43.5256646 207.042879,43.945 C207.14488,44.3643354 207.195879,44.8346641 207.195879,45.356 L207.195879,51 L206.124879,51 L206.124879,45.526 C206.124879,45.1519981 206.090879,44.8035016 206.022879,44.4805 C205.954879,44.1574984 205.83588,43.8770012 205.665879,43.639 C205.495878,43.4009988 205.26638,43.2140007 204.977379,43.078 C204.688378,42.9419993 204.328548,42.874 203.897879,42.874 C203.46721,42.874 203.084714,42.9504992 202.750379,43.1035 C202.416044,43.2565008 202.132713,43.4661653 201.900379,43.7325 C201.668045,43.9988347 201.486713,44.3161648 201.356379,44.6845 C201.226045,45.0528352 201.155212,45.4523312 201.143879,45.883 L201.143879,51 L200.072879,51 L200.072879,42.228 Z M215.224408,46.002 C215.213075,45.593998 215.142242,45.2030019 215.011908,44.829 C214.881574,44.4549981 214.697409,44.1235014 214.459408,43.8345 C214.221407,43.5454986 213.93241,43.3131675 213.592408,43.1375 C213.252407,42.9618325 212.867077,42.874 212.436408,42.874 C211.994406,42.874 211.60341,42.9618325 211.263408,43.1375 C210.923407,43.3131675 210.634409,43.5454986 210.396408,43.8345 C210.158407,44.1235014 209.968576,44.4578314 209.826908,44.8375 C209.685241,45.2171686 209.591742,45.6053314 209.546408,46.002 L215.224408,46.002 Z M209.546408,46.903 C209.546408,47.2883353 209.600241,47.6878313 209.707908,48.1015 C209.815576,48.5151687 209.988407,48.8863317 210.226408,49.215 C210.464409,49.5436683 210.76474,49.8156656 211.127408,50.031 C211.490077,50.2463344 211.926406,50.354 212.436408,50.354 C213.218412,50.354 213.830406,50.150002 214.272408,49.742 C214.714411,49.333998 215.020407,48.7900034 215.190408,48.11 L216.261408,48.11 C216.03474,49.1073383 215.618245,49.8779973 215.011908,50.422 C214.405572,50.9660027 213.547081,51.238 212.436408,51.238 C211.745072,51.238 211.147244,51.1161679 210.642908,50.8725 C210.138572,50.6288321 209.727743,50.2945021 209.410408,49.8695 C209.093073,49.4444979 208.857909,48.9515028 208.704908,48.3905 C208.551908,47.8294972 208.475408,47.2373365 208.475408,46.614 C208.475408,46.0359971 208.551908,45.4693361 208.704908,44.914 C208.857909,44.3586639 209.093073,43.8628355 209.410408,43.4265 C209.727743,42.9901645 210.138572,42.6388347 210.642908,42.3725 C211.147244,42.1061653 211.745072,41.973 212.436408,41.973 C213.139078,41.973 213.739739,42.1146653 214.238408,42.398 C214.737077,42.6813347 215.14224,43.0524977 215.453908,43.5115 C215.765577,43.9705023 215.989408,44.497497 216.125408,45.0925 C216.261409,45.687503 216.318075,46.2909969 216.295408,46.903 L209.546408,46.903 Z M217.438938,42.228 L218.424938,42.228 L218.424938,44.285 L218.458938,44.285 C218.730939,43.5709964 219.153101,43.0213353 219.725438,42.636 C220.297774,42.2506647 220.9806,42.0749998 221.773938,42.109 L221.773938,43.18 C221.286602,43.1573332 220.844606,43.2224992 220.447938,43.3755 C220.051269,43.5285008 219.708439,43.7466652 219.419438,44.03 C219.130436,44.3133347 218.906605,44.650498 218.747938,45.0415 C218.58927,45.432502 218.509938,45.860331 218.509938,46.325 L218.509938,51 L217.438938,51 L217.438938,42.228 Z M227.745467,44.795 C227.734134,44.4663317 227.666134,44.1801679 227.541467,43.9365 C227.4168,43.6928321 227.249635,43.4916675 227.039967,43.333 C226.830299,43.1743325 226.589468,43.058167 226.317467,42.9845 C226.045466,42.910833 225.756468,42.874 225.450467,42.874 C225.212466,42.874 224.971635,42.8994997 224.727967,42.9505 C224.484299,43.0015003 224.260468,43.0864994 224.056467,43.2055 C223.852466,43.3245006 223.688134,43.4803324 223.563467,43.673 C223.4388,43.8656676 223.376467,44.1036652 223.376467,44.387 C223.376467,44.6250012 223.435966,44.8261658 223.554967,44.9905 C223.673967,45.1548342 223.824133,45.2936661 224.005467,45.407 C224.186801,45.5203339 224.385132,45.613833 224.600467,45.6875 C224.815801,45.761167 225.014133,45.8206664 225.195467,45.866 L226.623467,46.189 C226.929468,46.2343336 227.232632,46.3164994 227.532967,46.4355 C227.833302,46.5545006 228.099632,46.7103324 228.331967,46.903 C228.564301,47.0956676 228.754133,47.3336652 228.901467,47.617 C229.048801,47.9003347 229.122467,48.2346647 229.122467,48.62 C229.122467,49.0960024 229.014801,49.501165 228.799467,49.8355 C228.584132,50.169835 228.309302,50.4418323 227.974967,50.6515 C227.640632,50.8611677 227.263802,51.0113329 226.844467,51.102 C226.425131,51.1926671 226.011469,51.238 225.603467,51.238 C224.572128,51.238 223.736303,50.9943358 223.095967,50.507 C222.45563,50.0196642 222.090134,49.2376721 221.999467,48.161 L223.070467,48.161 C223.1158,48.886337 223.379298,49.4331648 223.860967,49.8015 C224.342636,50.1698352 224.940463,50.354 225.654467,50.354 C225.915135,50.354 226.184299,50.3256669 226.461967,50.269 C226.739635,50.212333 226.997466,50.1160007 227.235467,49.98 C227.473468,49.8439993 227.668966,49.6711677 227.821967,49.4615 C227.974968,49.2518323 228.051467,48.9940015 228.051467,48.688 C228.051467,48.427332 227.997634,48.2091675 227.889967,48.0335 C227.7823,47.8578325 227.637801,47.7105006 227.456467,47.5915 C227.275133,47.4724994 227.068301,47.3733337 226.835967,47.294 C226.603632,47.2146663 226.368468,47.1466669 226.130467,47.09 L224.753467,46.784 C224.402132,46.6933329 224.079135,46.5885006 223.784467,46.4695 C223.489799,46.3504994 223.231968,46.2031675 223.010967,46.0275 C222.789966,45.8518325 222.617134,45.6365013 222.492467,45.3815 C222.3678,45.1264987 222.305467,44.8120019 222.305467,44.438 C222.305467,43.9959978 222.404633,43.6163349 222.602967,43.299 C222.801301,42.9816651 223.059132,42.7266676 223.376467,42.534 C223.693802,42.3413324 224.047965,42.1996671 224.438967,42.109 C224.829969,42.0183329 225.218132,41.973 225.603467,41.973 C226.045469,41.973 226.456298,42.0296661 226.835967,42.143 C227.215635,42.2563339 227.549965,42.4319988 227.838967,42.67 C228.127968,42.9080012 228.357466,43.2026649 228.527467,43.554 C228.697468,43.9053351 228.7938,44.3189976 228.816467,44.795 L227.745467,44.795 Z" id="ProfessionalUIkitsforDesigners" fill="#000000" fill-rule="nonzero"></path>
                <g id="logo">
                    <path d="M26.5438979,24.9801193 C26.5438979,25.0994042 26.5064861,25.2037769 26.4316615,25.2932406 C26.3568369,25.3827042 26.2321311,25.4572562 26.0575403,25.5168986 C25.8829496,25.5765411 25.6460085,25.6212722 25.3467101,25.6510934 C25.0474116,25.6809147 24.6670589,25.695825 24.2056405,25.695825 C23.7317513,25.695825 23.3451632,25.6809147 23.0458648,25.6510934 C22.7465664,25.6212722 22.5065077,25.5765411 22.3256815,25.5168986 C22.1448554,25.4572562 22.0201496,25.3827042 21.9515603,25.2932406 C21.8829711,25.2037769 21.848677,25.0994042 21.848677,24.9801193 L21.848677,15.5149105 C21.848677,14.9781285 21.7956771,14.4890678 21.6896755,14.0477137 C21.583674,13.6063596 21.4215564,13.2276358 21.203318,12.9115308 C20.9850795,12.5954259 20.7107267,12.3508955 20.3802514,12.1779324 C20.049776,12.0049693 19.6538351,11.9184891 19.1924166,11.9184891 C18.6312321,11.9184891 18.0638206,12.1272345 17.4901653,12.5447316 C16.9165099,12.9622287 16.2929808,13.5705725 15.6195593,14.3697813 L15.6195593,24.9801193 C15.6195593,25.0994042 15.5821476,25.2037769 15.507323,25.2932406 C15.4324984,25.3827042 15.3046749,25.4572562 15.1238488,25.5168986 C14.9430226,25.5765411 14.7029639,25.6212722 14.4036655,25.6510934 C14.1043671,25.6809147 13.7302496,25.695825 13.281302,25.695825 C12.8198835,25.695825 12.4395308,25.6809147 12.1402324,25.6510934 C11.8409339,25.6212722 11.6008752,25.5765411 11.4200491,25.5168986 C11.2392229,25.4572562 11.1113995,25.3827042 11.0365749,25.2932406 C10.9617503,25.2037769 10.9243385,25.0994042 10.9243385,24.9801193 L10.9243385,15.5149105 C10.9243385,14.9781285 10.8713385,14.4890678 10.765337,14.0477137 C10.6593355,13.6063596 10.5003356,13.2276358 10.2883325,12.9115308 C10.0763294,12.5954259 9.80197665,12.3508955 9.4652659,12.1779324 C9.12855515,12.0049693 8.73573184,11.9184891 8.28678418,11.9184891 C7.71312883,11.9184891 7.13948209,12.1272345 6.56582674,12.5447316 C5.99217139,12.9622287 5.37487762,13.5705725 4.71392689,14.3697813 L4.71392689,24.9801193 C4.71392689,25.0994042 4.67651515,25.2037769 4.60169054,25.2932406 C4.52686593,25.3827042 4.39904247,25.4572562 4.21821633,25.5168986 C4.03739018,25.5765411 3.79733149,25.6212722 3.49803305,25.6510934 C3.19873461,25.6809147 2.81838188,25.695825 2.35696345,25.695825 C1.89554501,25.695825 1.51519228,25.6809147 1.21589384,25.6510934 C0.916595399,25.6212722 0.676536708,25.5765411 0.495710566,25.5168986 C0.314884424,25.4572562 0.187060965,25.3827042 0.112236355,25.2932406 C0.0374117441,25.2037769 0,25.0994042 0,24.9801193 L0,9.01988072 C0,8.90059583 0.0311764534,8.79622311 0.0935302955,8.70675944 C0.155884138,8.61729578 0.26811937,8.54274384 0.430239359,8.48310139 C0.592359349,8.42345895 0.801241586,8.37872778 1.05689234,8.34890656 C1.31254309,8.31908534 1.63366056,8.30417495 2.02025438,8.30417495 C2.41931897,8.30417495 2.74978938,8.31908534 3.01167551,8.34890656 C3.27356165,8.37872778 3.4762086,8.42345895 3.61962243,8.48310139 C3.76303627,8.54274384 3.86591857,8.61729578 3.92827241,8.70675944 C3.99062625,8.79622311 4.02180271,8.90059583 4.02180271,9.01988072 L4.02180271,10.8628231 C4.94463957,9.90854394 5.86434494,9.19284533 6.78094642,8.71570577 C7.6975479,8.2385662 8.65466502,8 9.65232649,8 C10.3382188,8 10.9555125,8.06858778 11.5042263,8.20576541 C12.0529402,8.34294303 12.5424105,8.53976015 12.972652,8.79622266 C13.4028935,9.05268518 13.7738933,9.35983917 14.0856625,9.71769384 C14.3974317,10.0755485 14.6593139,10.4751469 14.871317,10.916501 C15.3701477,10.403576 15.859618,9.96222849 16.3397426,9.59244533 C16.8198672,9.22266217 17.2937493,8.92147234 17.7614031,8.6888668 C18.2290569,8.45626126 18.6967037,8.28330077 19.1643575,8.16998012 C19.6320114,8.05665947 20.1090111,8 20.5953711,8 C21.7052695,8 22.6405631,8.17892465 23.4012799,8.53677932 C24.1619968,8.894634 24.7761729,9.38071263 25.2438267,9.99502982 C25.7114806,10.609347 26.0450686,11.3280277 26.2446009,12.1510934 C26.4441332,12.9741592 26.5438979,13.8449258 26.5438979,14.7634195 L26.5438979,24.9801193 Z M44.7015261,25.0337972 C44.7015261,25.2007961 44.6391732,25.3320075 44.5144655,25.4274354 C44.3897578,25.5228633 44.1933462,25.5914511 43.9252247,25.6332008 C43.6571031,25.6749505 43.2611622,25.695825 42.7373899,25.695825 C42.1762053,25.695825 41.7677938,25.6749505 41.512143,25.6332008 C41.2564923,25.5914511 41.0756689,25.5228633 40.9696673,25.4274354 C40.8636658,25.3320075 40.8106658,25.2007961 40.8106658,25.0337972 L40.8106658,23.7634195 C40.1247736,24.4672003 39.3422446,25.0159026 38.4630554,25.4095427 C37.5838662,25.8031829 36.6080432,26 35.5355572,26 C34.6501326,26 33.8364272,25.8896631 33.0944164,25.6689861 C32.3524057,25.448309 31.7101708,25.1202805 31.1676924,24.6848907 C30.6252139,24.2495008 30.2043318,23.7097448 29.9050334,23.0656064 C29.6057349,22.421468 29.456088,21.6699844 29.456088,20.8111332 C29.456088,19.8807111 29.6462643,19.072568 30.0266228,18.3866799 C30.4069812,17.7007918 30.9743926,17.1341971 31.7288741,16.6868787 C32.4833556,16.2395604 33.4217669,15.9085498 34.544136,15.693837 C35.6665052,15.4791242 36.9696809,15.3717694 38.4537024,15.3717694 L40.0811295,15.3717694 L40.0811295,14.4055666 C40.0811295,13.9045701 40.0281295,13.4662047 39.922128,13.0904573 C39.8161265,12.7147099 39.6415383,12.4015917 39.3983584,12.1510934 C39.1551784,11.9005952 38.8309433,11.7157064 38.4256433,11.5964215 C38.0203433,11.4771366 37.5184024,11.417495 36.9198055,11.417495 C36.1341471,11.417495 35.4326769,11.5009932 34.8153739,11.667992 C34.1980708,11.8349909 33.6524829,12.0198797 33.1785937,12.222664 C32.7047045,12.4254483 32.3087636,12.6103371 31.990759,12.777336 C31.6727544,12.9443348 31.4139898,13.027833 31.2144575,13.027833 C31.0772791,13.027833 30.9556909,12.9860839 30.8496894,12.9025845 C30.7436878,12.8190851 30.6563938,12.699802 30.5878045,12.5447316 C30.5192153,12.3896613 30.4662153,12.1988083 30.428803,11.972167 C30.3913907,11.7455257 30.3726848,11.4950312 30.3726848,11.2206759 C30.3726848,10.8508928 30.4038613,10.5586492 30.4662151,10.3439364 C30.528569,10.1292236 30.6470395,9.93538854 30.8216303,9.76242545 C30.996221,9.58946236 31.3017503,9.39860939 31.7382272,9.18986083 C32.1747041,8.98111228 32.6859979,8.78727724 33.272124,8.6083499 C33.8582501,8.42942256 34.4973674,8.28330077 35.1894951,8.16998012 C35.8816227,8.05665947 36.5955635,8 37.3313388,8 C38.6407695,8 39.7600042,8.12226518 40.6890764,8.3667992 C41.6181487,8.61133323 42.3819718,8.987075 42.9805687,9.49403579 C43.5791656,10.0009966 44.0156359,10.6540716 44.2899928,11.4532803 C44.5643497,12.2524891 44.7015261,13.2007897 44.7015261,14.2982107 L44.7015261,25.0337972 Z M40.0811295,18.1988072 L38.2853478,18.1988072 C37.524631,18.1988072 36.8761607,18.2524846 36.3399177,18.359841 C35.8036747,18.4671974 35.3672043,18.6282295 35.0304936,18.8429423 C34.6937828,19.0576551 34.4474888,19.3170959 34.2916042,19.6212724 C34.1357196,19.9254488 34.0577785,20.2743519 34.0577785,20.667992 C34.0577785,21.3359874 34.2791313,21.8608331 34.7218436,22.2425447 C35.1645559,22.6242564 35.778732,22.8151093 36.5643904,22.8151093 C37.2253411,22.8151093 37.833282,22.6540772 38.3882312,22.332008 C38.9431804,22.0099387 39.5074742,21.5387705 40.0811295,20.9184891 L40.0811295,18.1988072 Z M62.8591544,24.6580517 C62.9589205,24.860836 63.0056852,25.0278323 62.9994498,25.1590457 C62.9932144,25.2902591 62.9028027,25.3976139 62.728212,25.4811133 C62.5536212,25.5646127 62.2855037,25.6212722 61.9238514,25.6510934 C61.5621991,25.6809147 61.0820817,25.695825 60.4834849,25.695825 C59.9223003,25.695825 59.4702417,25.6868788 59.1272956,25.6689861 C58.7843494,25.6510933 58.5162319,25.6153084 58.322935,25.5616302 C58.1296381,25.507952 57.9862264,25.4423463 57.8926957,25.3648111 C57.7991649,25.287276 57.7274591,25.1888674 57.677576,25.0695825 L54.5910762,19.3976143 L51.5045765,25.0695825 C51.4546934,25.1888674 51.3861052,25.287276 51.2988098,25.3648111 C51.2115145,25.4423463 51.0774557,25.507952 50.8966296,25.5616302 C50.7158034,25.6153084 50.4632742,25.6510933 50.1390342,25.6689861 C49.8147942,25.6868788 49.3907944,25.695825 48.8670222,25.695825 C48.3183084,25.695825 47.881838,25.6809147 47.557598,25.6510934 C47.2333581,25.6212722 46.996417,25.5646127 46.8467678,25.4811133 C46.6971186,25.3976139 46.6191774,25.2902591 46.612942,25.1590457 C46.6067067,25.0278323 46.6597066,24.860836 46.7719435,24.6580517 L51.3923401,16.8031809 L47.1273587,9.43141153 C47.0151218,9.21669873 46.9558865,9.034792 46.9496511,8.88568588 C46.9434157,8.73657977 47.0213569,8.62027875 47.1834768,8.53677932 C47.3455968,8.4532799 47.6043614,8.39363835 47.9597783,8.35785288 C48.3151952,8.32206742 48.7984302,8.30417495 49.4094979,8.30417495 C49.9582117,8.30417495 50.3977997,8.31312118 50.728275,8.33101392 C51.0587504,8.34890665 51.317515,8.37574535 51.5045765,8.41153082 C51.691638,8.44731628 51.8288144,8.50397576 51.9161098,8.58151093 C52.0034052,8.65904611 52.0782287,8.75745467 52.1405825,8.87673956 L55.1148459,14.2087475 L58.0704032,8.87673956 C58.1078155,8.78131165 58.1639332,8.69781348 58.2387578,8.62624254 C58.3135824,8.55467161 58.4320529,8.49503006 58.5941729,8.4473161 C58.7562929,8.39960215 58.9776457,8.36381722 59.258238,8.33996024 C59.5388303,8.31610326 59.9223007,8.30417495 60.4086606,8.30417495 C60.9573744,8.30417495 61.3969624,8.31610326 61.7274378,8.33996024 C62.0579132,8.36381722 62.2948542,8.41749461 62.438268,8.50099404 C62.5816819,8.58449346 62.6502701,8.70079448 62.6440347,8.8499006 C62.6377993,8.99900671 62.5660935,9.19284175 62.428915,9.43141153 L58.2761699,16.6779324 L62.8591544,24.6580517 Z" id="max" fill="#000000" fill-rule="nonzero"></path>
                    <path d="M135.82345,8.52579505 C135.82345,8.66054249 135.805027,8.82591186 135.768182,9.02190813 C135.731336,9.2179044 135.663787,9.49964481 135.565532,9.86713781 L131.18093,24.6954064 C131.11952,24.9036524 131.03969,25.0720842 130.941435,25.2007067 C130.84318,25.3293293 130.692729,25.4303883 130.490079,25.5038869 C130.287428,25.5773855 129.998808,25.6263839 129.624212,25.6508834 C129.249615,25.6753829 128.761418,25.6876325 128.159607,25.6876325 C127.557796,25.6876325 127.066529,25.6723205 126.685791,25.6416961 C126.305053,25.6110717 126.007223,25.559011 125.79229,25.4855124 C125.577358,25.4120138 125.420766,25.3109547 125.322511,25.1823322 C125.224257,25.0537096 125.150566,24.8914026 125.101439,24.6954064 L122.338034,14.7363958 L122.301189,14.5710247 L122.264343,14.7363958 L119.722011,24.6954064 C119.672883,24.9036524 119.602264,25.0720842 119.51015,25.2007067 C119.418036,25.3293293 119.261445,25.4303883 119.040371,25.5038869 C118.819298,25.5773855 118.518396,25.6263839 118.137659,25.6508834 C117.756921,25.6753829 117.265654,25.6876325 116.663843,25.6876325 C116.04975,25.6876325 115.555412,25.6723205 115.180816,25.6416961 C114.806219,25.6110717 114.511459,25.559011 114.296526,25.4855124 C114.081593,25.4120138 113.925002,25.3109547 113.826747,25.1823322 C113.728492,25.0537096 113.654802,24.8914026 113.605675,24.6954064 L109.257918,9.86713781 C109.147381,9.51189457 109.076761,9.23321656 109.046057,9.03109541 C109.015352,8.82897425 109,8.66054249 109,8.52579505 C109,8.40329739 109.033775,8.29611353 109.101325,8.20424028 C109.168875,8.11236703 109.291692,8.03886953 109.469779,7.98374558 C109.647866,7.92862163 109.887359,7.88881049 110.188264,7.86431095 C110.48917,7.83981142 110.866831,7.82756184 111.32126,7.82756184 C111.812535,7.82756184 112.211689,7.83981142 112.518736,7.86431095 C112.825782,7.88881049 113.065275,7.93168403 113.237221,7.99293286 C113.409167,8.0541817 113.528913,8.13686638 113.596463,8.2409894 C113.664014,8.34511242 113.716211,8.47067064 113.753056,8.61766784 L117.013874,20.6530035 L117.05072,20.8734982 L117.087565,20.6530035 L120.145733,8.61766784 C120.182579,8.47067064 120.240917,8.34511242 120.320749,8.2409894 C120.400581,8.13686638 120.520327,8.0541817 120.679991,7.99293286 C120.839655,7.93168403 121.063796,7.88881049 121.35242,7.86431095 C121.641043,7.83981142 122.012564,7.82756184 122.466993,7.82756184 C122.921422,7.82756184 123.289872,7.84287382 123.572355,7.87349823 C123.854838,7.90412265 124.078978,7.94699619 124.244784,8.00212014 C124.410589,8.05724409 124.527265,8.13074159 124.594815,8.22261484 C124.662365,8.31448809 124.714562,8.42167194 124.751408,8.54416961 L128.030648,20.6713781 L128.085916,20.8734982 L128.122762,20.6530035 L131.254621,8.61766784 C131.279184,8.47067064 131.328311,8.34511242 131.402002,8.2409894 C131.475693,8.13686638 131.59851,8.0541817 131.770456,7.99293286 C131.942402,7.93168403 132.175754,7.88881049 132.470519,7.86431095 C132.765283,7.83981142 133.139874,7.82756184 133.594303,7.82756184 C134.048732,7.82756184 134.420253,7.83981142 134.708877,7.86431095 C134.9975,7.88881049 135.224711,7.92862163 135.390517,7.98374558 C135.556322,8.03886953 135.669927,8.11236703 135.731336,8.20424028 C135.792746,8.29611353 135.82345,8.40329739 135.82345,8.52579505 Z M142.762943,24.9526502 C142.762943,25.0751478 142.726098,25.1823317 142.652406,25.2742049 C142.578715,25.3660782 142.452828,25.4426381 142.274741,25.5038869 C142.096654,25.5651358 141.860232,25.6110717 141.565467,25.6416961 C141.270702,25.6723205 140.896111,25.6876325 140.441683,25.6876325 C139.987254,25.6876325 139.612663,25.6723205 139.317898,25.6416961 C139.023133,25.6110717 138.786711,25.5651358 138.608624,25.5038869 C138.430537,25.4426381 138.30465,25.3660782 138.230959,25.2742049 C138.157267,25.1823317 138.120422,25.0751478 138.120422,24.9526502 L138.120422,8.59929329 C138.120422,8.47679562 138.157267,8.36961177 138.230959,8.27773852 C138.30465,8.18586527 138.430537,8.10624298 138.608624,8.03886926 C138.786711,7.97149554 139.023133,7.91943481 139.317898,7.88268551 C139.612663,7.84593621 139.987254,7.82756184 140.441683,7.82756184 C140.896111,7.82756184 141.270702,7.84593621 141.565467,7.88268551 C141.860232,7.91943481 142.096654,7.97149554 142.274741,8.03886926 C142.452828,8.10624298 142.578715,8.18586527 142.652406,8.27773852 C142.726098,8.36961177 142.762943,8.47679562 142.762943,8.59929329 L142.762943,24.9526502 Z M143.112974,3.01342756 C143.112974,3.94440984 142.922608,4.58751295 142.54187,4.94275618 C142.161133,5.29799942 141.454936,5.47561837 140.42326,5.47561837 C139.379302,5.47561837 138.676176,5.30412421 138.313861,4.96113074 C137.951546,4.61813727 137.770391,3.99953333 137.770391,3.10530035 C137.770391,2.17431808 137.957687,1.52815257 138.332283,1.16678445 C138.70688,0.805416332 139.416147,0.624734982 140.460105,0.624734982 C141.491782,0.624734982 142.191837,0.799291541 142.560293,1.14840989 C142.928749,1.49752825 143.112974,2.11919459 143.112974,3.01342756 Z M162.303561,24.9526502 C162.303561,25.0873976 162.272857,25.2007063 162.211448,25.2925795 C162.150039,25.3844528 162.045644,25.4610127 161.898262,25.5222615 C161.75088,25.5835103 161.551303,25.6263839 161.299524,25.6508834 C161.047746,25.6753829 160.737634,25.6876325 160.369178,25.6876325 C159.976159,25.6876325 159.656835,25.6753829 159.411198,25.6508834 C159.16556,25.6263839 158.965983,25.5835103 158.81246,25.5222615 C158.658937,25.4610127 158.548402,25.3844528 158.480851,25.2925795 C158.413301,25.2007063 158.379527,25.0873976 158.379527,24.9526502 L158.379527,23.1335689 C157.532078,24.0400516 156.644727,24.7444027 155.717447,25.2466431 C154.790166,25.7488835 153.761576,26 152.631644,26 C151.378895,26 150.3196,25.7580707 149.453729,25.2742049 C148.587858,24.7903392 147.881661,24.1380489 147.335118,23.3173145 C146.788576,22.4965801 146.392492,21.5380502 146.146854,20.4416961 C145.901217,19.345342 145.7784,18.1908188 145.7784,16.9780919 C145.7784,15.5203696 145.934992,14.2096642 146.248179,13.0459364 C146.561367,11.8822086 147.018859,10.8899923 147.62067,10.069258 C148.222481,9.24852358 148.971664,8.61767005 149.86824,8.17667845 C150.764815,7.73568684 151.796476,7.51519435 152.963253,7.51519435 C153.884393,7.51519435 154.719547,7.70200049 155.46874,8.07561837 C156.217934,8.44923626 156.960975,8.9974051 157.697887,9.72014134 L157.697887,0.845229682 C157.697887,0.722732014 157.731661,0.612485767 157.799212,0.514487633 C157.866762,0.416489498 157.989579,0.333804813 158.167666,0.266431095 C158.345752,0.199057378 158.582175,0.14699665 158.876939,0.11024735 C159.171704,0.0734980495 159.546295,0.0551236749 160.000724,0.0551236749 C160.455153,0.0551236749 160.829744,0.0734980495 161.124509,0.11024735 C161.419273,0.14699665 161.652625,0.199057378 161.824571,0.266431095 C161.996517,0.333804813 162.119334,0.416489498 162.193025,0.514487633 C162.266716,0.612485767 162.303561,0.722732014 162.303561,0.845229682 L162.303561,24.9526502 Z M157.697887,14.0014134 C157.034666,13.1684293 156.399089,12.531451 155.791137,12.0904594 C155.183185,11.6494678 154.547608,11.4289753 153.884388,11.4289753 C153.282577,11.4289753 152.763676,11.5790327 152.32767,11.8791519 C151.891664,12.1792712 151.541636,12.5804451 151.277576,13.0826855 C151.013516,13.584926 150.817009,14.1453444 150.68805,14.7639576 C150.55909,15.3825708 150.494611,16.0164867 150.494611,16.6657244 C150.494611,17.3517113 150.549879,18.0193136 150.660416,18.6685512 C150.770952,19.3177889 150.952107,19.8965817 151.203885,20.404947 C151.455663,20.9133123 151.790339,21.320611 152.207922,21.6268551 C152.625506,21.9330993 153.153618,22.0862191 153.792274,22.0862191 C154.111603,22.0862191 154.421715,22.0402831 154.722621,21.9484099 C155.023526,21.8565366 155.330568,21.7064793 155.643756,21.4982332 C155.956943,21.2899872 156.279337,21.017434 156.610947,20.6805654 C156.942558,20.3436968 157.304867,19.9302734 157.697887,19.4402827 L157.697887,14.0014134 Z M176.022607,23.335689 C176.022607,23.8746788 175.988833,24.2881022 175.921283,24.5759717 C175.853732,24.8638413 175.76469,25.0659594 175.654153,25.1823322 C175.543617,25.2987049 175.380884,25.4028264 175.165952,25.4946996 C174.951019,25.5865729 174.699245,25.6661952 174.410621,25.7335689 C174.121998,25.8009426 173.808815,25.8530033 173.471064,25.8897527 C173.133312,25.926502 172.792496,25.9448763 172.448604,25.9448763 C171.527464,25.9448763 170.729155,25.8285053 170.053653,25.5957597 C169.378151,25.3630141 168.819334,25.0047138 168.377187,24.5208481 C167.93504,24.0369823 167.609576,23.4275655 167.400784,22.6925795 C167.191993,21.9575935 167.087598,21.0878731 167.087598,20.0833922 L167.087598,11.6862191 L165.11637,11.6862191 C164.883014,11.6862191 164.70493,11.5422865 164.582111,11.254417 C164.459293,10.9665474 164.397884,10.4857513 164.397884,9.81201413 C164.397884,9.4567709 164.413236,9.15665611 164.443941,8.91166078 C164.474646,8.66666544 164.520702,8.47373451 164.582111,8.33286219 C164.643521,8.19198987 164.720281,8.09093081 164.812395,8.02968198 C164.904509,7.96843314 165.011974,7.93780919 165.134792,7.93780919 L167.087598,7.93780919 L167.087598,4.28127208 C167.087598,4.15877442 167.121373,4.04852817 167.188923,3.95053004 C167.256473,3.8525319 167.37929,3.76984722 167.557377,3.7024735 C167.735464,3.63509978 167.974957,3.58610145 168.275862,3.55547703 C168.576768,3.52485261 168.948289,3.50954064 169.390436,3.50954064 C169.844865,3.50954064 170.222526,3.52485261 170.523432,3.55547703 C170.824337,3.58610145 171.06076,3.63509978 171.232706,3.7024735 C171.404652,3.76984722 171.527468,3.8525319 171.60116,3.95053004 C171.674851,4.04852817 171.711696,4.15877442 171.711696,4.28127208 L171.711696,7.93780919 L175.285699,7.93780919 C175.408518,7.93780919 175.515983,7.96843314 175.608097,8.02968198 C175.700211,8.09093081 175.776971,8.19198987 175.83838,8.33286219 C175.89979,8.47373451 175.945846,8.66666544 175.976551,8.91166078 C176.007255,9.15665611 176.022607,9.4567709 176.022607,9.81201413 C176.022607,10.4857513 175.961199,10.9665474 175.83838,11.254417 C175.715562,11.5422865 175.537478,11.6862191 175.304122,11.6862191 L171.711696,11.6862191 L171.711696,19.385159 C171.711696,20.279392 171.852935,20.9500567 172.135418,21.3971731 C172.417901,21.8442896 172.921449,22.0678445 173.646079,22.0678445 C173.891716,22.0678445 174.112787,22.0464078 174.309296,22.0035336 C174.505806,21.9606594 174.68082,21.9116611 174.834343,21.8565371 C174.987867,21.8014132 175.116824,21.7524148 175.22122,21.7095406 C175.325616,21.6666665 175.420799,21.6452297 175.506772,21.6452297 C175.580463,21.6452297 175.651083,21.6666665 175.718633,21.7095406 C175.786183,21.7524148 175.83838,21.8381619 175.875226,21.9667845 C175.912071,22.095407 175.945846,22.2699636 175.976551,22.4904594 C176.007255,22.7109552 176.022607,22.9926956 176.022607,23.335689 Z M194.402596,24.9526502 C194.402596,25.0751478 194.365751,25.1823317 194.29206,25.2742049 C194.218369,25.3660782 194.095552,25.4426381 193.923606,25.5038869 C193.75166,25.5651358 193.515238,25.6110717 193.214332,25.6416961 C192.913427,25.6723205 192.541906,25.6876325 192.099759,25.6876325 C191.64533,25.6876325 191.267668,25.6723205 190.966763,25.6416961 C190.665857,25.6110717 190.429435,25.5651358 190.257489,25.5038869 C190.085543,25.4426381 189.962726,25.3660782 189.889035,25.2742049 C189.815344,25.1823317 189.778499,25.0751478 189.778499,24.9526502 L189.778499,15.6 C189.778499,14.8037652 189.720161,14.1790364 189.603483,13.7257951 C189.486805,13.2725537 189.317932,12.8836294 189.096859,12.5590106 C188.875785,12.2343918 188.590236,11.9832753 188.240203,11.8056537 C187.89017,11.6280321 187.481805,11.5392226 187.015094,11.5392226 C186.425565,11.5392226 185.829903,11.7535903 185.228092,12.1823322 C184.626281,12.611074 183.999915,13.2358027 183.348977,14.0565371 L183.348977,24.9526502 C183.348977,25.0751478 183.312132,25.1823317 183.238441,25.2742049 C183.164749,25.3660782 183.038862,25.4426381 182.860775,25.5038869 C182.682688,25.5651358 182.446266,25.6110717 182.151501,25.6416961 C181.856737,25.6723205 181.482146,25.6876325 181.027717,25.6876325 C180.573288,25.6876325 180.198697,25.6723205 179.903932,25.6416961 C179.609167,25.6110717 179.372745,25.5651358 179.194658,25.5038869 C179.016571,25.4426381 178.890684,25.3660782 178.816993,25.2742049 C178.743302,25.1823317 178.706457,25.0751478 178.706457,24.9526502 L178.706457,0.790106007 C178.706457,0.667608339 178.743302,0.557362092 178.816993,0.459363958 C178.890684,0.361365823 179.016571,0.278681138 179.194658,0.21130742 C179.372745,0.143933703 179.609167,0.0918729753 179.903932,0.0551236749 C180.198697,0.0183743746 180.573288,0 181.027717,0 C181.482146,0 181.856737,0.0183743746 182.151501,0.0551236749 C182.446266,0.0918729753 182.682688,0.143933703 182.860775,0.21130742 C183.038862,0.278681138 183.164749,0.361365823 183.238441,0.459363958 C183.312132,0.557362092 183.348977,0.667608339 183.348977,0.790106007 L183.348977,9.84876325 C184.147298,9.06477818 184.960959,8.47986059 185.789984,8.09399293 C186.61901,7.70812528 187.481798,7.51519435 188.378374,7.51519435 C189.496023,7.51519435 190.438642,7.69893809 191.206258,8.0664311 C191.973874,8.4339241 192.594099,8.936157 193.066951,9.57314488 C193.539802,10.2101327 193.880619,10.9542949 194.08941,11.8056537 C194.298202,12.6570125 194.402596,13.6890399 194.402596,14.9017668 L194.402596,24.9526502 Z M199.294537,24.4434124 C199.294537,24.9316531 199.209004,25.259767 199.037936,25.4277638 C198.866867,25.5957606 198.560264,25.6797577 198.118117,25.6797577 C197.67597,25.6797577 197.370682,25.597073 197.202245,25.4317012 C197.033808,25.2663293 196.949591,24.9526525 196.949591,24.4906613 C196.949591,23.9971707 197.035124,23.6664319 197.206193,23.4984351 C197.377262,23.3304383 197.686497,23.2464412 198.133907,23.2464412 C198.570791,23.2464412 198.873446,23.3291259 199.041883,23.4944977 C199.21032,23.6598696 199.294537,23.9761713 199.294537,24.4434124 Z M206.318968,24.1914185 C206.318968,24.3279159 206.31502,24.4420995 206.307125,24.5339727 C206.299229,24.625846 206.288702,24.7032809 206.275543,24.7662797 C206.262384,24.8292785 206.246593,24.8804642 206.22817,24.9198385 C206.209747,24.9592127 206.168955,25.009086 206.105791,25.0694599 C206.042627,25.1298337 205.934724,25.2033312 205.782078,25.2899546 C205.629432,25.3765779 205.455734,25.4540128 205.260978,25.5222615 C205.066223,25.5905102 204.854364,25.6456333 204.625395,25.6876325 C204.396426,25.7296317 204.160881,25.750631 203.918753,25.750631 C203.376597,25.750631 202.896296,25.6666339 202.477835,25.4986371 C202.059374,25.3306403 201.708031,25.0825862 201.423793,24.7544674 C201.139556,24.4263487 200.925065,24.0260498 200.780315,23.5535588 C200.635564,23.0810678 200.56319,22.5403362 200.56319,21.9313478 C200.56319,21.2278612 200.651355,20.6201944 200.827688,20.1083291 C201.00402,19.5964639 201.250092,19.1725408 201.565911,18.8365472 C201.881731,18.5005536 202.255445,18.2511871 202.687064,18.0884402 C203.118684,17.9256933 203.592406,17.844321 204.108244,17.844321 C204.31879,17.844321 204.525385,17.8626954 204.728036,17.8994447 C204.930687,17.936194 205.120176,17.9860673 205.296508,18.0490661 C205.47284,18.1120649 205.630748,18.1829375 205.770235,18.261686 C205.909721,18.3404345 206.008413,18.4086822 206.066314,18.4664311 C206.124214,18.52418 206.165007,18.5727408 206.188693,18.6121151 C206.212379,18.6514893 206.230802,18.7026751 206.243961,18.7656739 C206.25712,18.8286727 206.267647,18.9061076 206.275543,18.9979808 C206.283438,19.0898541 206.287386,19.2014128 206.287386,19.3326603 C206.287386,19.6371545 206.261068,19.8510847 206.208432,19.9744573 C206.155795,20.09783 206.087369,20.1595154 206.00315,20.1595154 C205.913668,20.1595154 205.818924,20.1227666 205.718914,20.049268 C205.618905,19.9757694 205.500474,19.8943972 205.363619,19.8051489 C205.226764,19.7159006 205.063593,19.6345284 204.874102,19.5610298 C204.68461,19.4875312 204.458276,19.4507824 204.195094,19.4507824 C203.679256,19.4507824 203.284487,19.6489632 203.010777,20.0453306 C202.737067,20.4416981 202.600214,21.0231158 202.600214,21.7896012 C202.600214,22.167594 202.634428,22.5009577 202.702855,22.7897022 C202.771283,23.0784467 202.872606,23.3199385 203.00683,23.5141848 C203.141053,23.7084311 203.309487,23.8541136 203.512138,23.9512367 C203.714789,24.0483599 203.950334,24.0969207 204.21878,24.0969207 C204.49249,24.0969207 204.728035,24.0562346 204.925422,23.9748612 C205.122809,23.8934877 205.295191,23.8029283 205.442574,23.7031802 C205.589956,23.6034321 205.71365,23.5128727 205.813659,23.4314992 C205.913669,23.3501258 205.997886,23.3094397 206.066314,23.3094397 C206.113686,23.3094397 206.153163,23.3225642 206.184745,23.3488137 C206.216327,23.3750632 206.241329,23.4236241 206.259752,23.4944977 C206.278175,23.5653714 206.29265,23.6559308 206.303177,23.7661787 C206.313704,23.8764266 206.318968,24.0181718 206.318968,24.1914185 Z M214.511924,21.7266027 C214.511924,22.3250913 214.43297,22.8710727 214.27506,23.3645634 C214.117151,23.858054 213.877658,24.2832895 213.556575,24.6402827 C213.235492,24.9972759 212.832829,25.2728915 212.348572,25.4671378 C211.864316,25.6613841 211.298482,25.7585058 210.651052,25.7585058 C210.024677,25.7585058 209.479897,25.6718838 209.016696,25.4986371 C208.553494,25.3253904 208.169253,25.0733989 207.863961,24.7426552 C207.558669,24.4119115 207.332335,24.0050504 207.184953,23.5220596 C207.037571,23.0390688 206.963881,22.4878375 206.963881,21.8683493 C206.963881,21.2698607 207.04415,20.7225668 207.204691,20.2264513 C207.365233,19.7303357 207.606042,19.3051002 207.927124,18.950732 C208.248207,18.5963637 208.649555,18.3220605 209.131179,18.1278142 C209.612804,17.9335679 210.177322,17.8364462 210.824752,17.8364462 C211.45639,17.8364462 212.003802,17.9217558 212.467004,18.0923776 C212.930206,18.2629993 213.313131,18.5136783 213.615791,18.844422 C213.918451,19.1751657 214.143469,19.5820269 214.290851,20.0650177 C214.438233,20.5480085 214.511924,21.1018646 214.511924,21.7266027 Z M212.467004,21.8053508 C212.467004,21.4588574 212.43937,21.1399308 212.384102,20.8485613 C212.328833,20.5571919 212.235405,20.303888 212.103814,20.0886421 C211.972222,19.8733962 211.797208,19.7054019 211.578767,19.5846542 C211.360325,19.4639065 211.085303,19.4035336 210.753693,19.4035336 C210.458928,19.4035336 210.201013,19.4573442 209.97994,19.5649672 C209.758866,19.6725901 209.577273,19.8300848 209.435154,20.0374558 C209.293035,20.2448269 209.186448,20.4941934 209.115389,20.7855628 C209.044329,21.0769323 209.0088,21.4089835 209.0088,21.7817264 C209.0088,22.1282198 209.03775,22.4471464 209.09565,22.7385159 C209.15355,23.0298854 209.246979,23.2831892 209.375938,23.4984351 C209.504898,23.713681 209.679912,23.8803629 209.900985,23.9984856 C210.122059,24.1166084 210.395765,24.1756689 210.722111,24.1756689 C211.022139,24.1756689 211.282686,24.1218582 211.50376,24.0142352 C211.724833,23.9066123 211.906427,23.7504301 212.048545,23.545684 C212.190664,23.3409379 212.295936,23.0928838 212.364363,22.8015144 C212.432791,22.5101449 212.467004,22.1780937 212.467004,21.8053508 Z M227,25.3096416 C227,25.3621406 226.984209,25.4080765 226.952627,25.4474508 C226.921045,25.486825 226.86841,25.5196364 226.794718,25.5458859 C226.721027,25.5721354 226.621019,25.5918222 226.494692,25.604947 C226.368364,25.6180717 226.207825,25.624634 226.01307,25.624634 C225.813051,25.624634 225.64988,25.6180717 225.523552,25.604947 C225.397225,25.5918222 225.295901,25.5721354 225.219578,25.5458859 C225.143255,25.5196364 225.090619,25.486825 225.061669,25.4474508 C225.032719,25.4080765 225.018244,25.3621406 225.018244,25.3096416 L225.018244,21.1438667 C225.018244,20.9076212 224.995874,20.6923786 224.951133,20.4981323 C224.906392,20.303886 224.837965,20.1372041 224.745851,19.9980818 C224.653737,19.8589594 224.537939,19.7513381 224.398452,19.6752145 C224.258965,19.599091 224.091846,19.5610298 223.897091,19.5610298 C223.660227,19.5610298 223.420734,19.6529017 223.178606,19.8366482 C222.936478,20.0203947 222.673299,20.2881355 222.389062,20.6398788 L222.389062,25.3096416 C222.389062,25.3621406 222.373271,25.4080765 222.341689,25.4474508 C222.310107,25.486825 222.256155,25.5196364 222.179832,25.5458859 C222.103509,25.5721354 222.002186,25.5918222 221.875858,25.604947 C221.74953,25.6180717 221.591623,25.624634 221.402131,25.624634 C221.207376,25.624634 221.046837,25.6180717 220.920509,25.604947 C220.794182,25.5918222 220.692858,25.5721354 220.616535,25.5458859 C220.540212,25.5196364 220.48626,25.486825 220.454678,25.4474508 C220.423096,25.4080765 220.407306,25.3621406 220.407306,25.3096416 L220.407306,21.1438667 C220.407306,20.9076212 220.384935,20.6923786 220.340194,20.4981323 C220.295453,20.303886 220.228343,20.1372041 220.13886,19.9980818 C220.049378,19.8589594 219.93358,19.7513381 219.791461,19.6752145 C219.649342,19.599091 219.48354,19.5610298 219.294048,19.5610298 C219.05192,19.5610298 218.809796,19.6529017 218.567667,19.8366482 C218.325539,20.0203947 218.064992,20.2881355 217.786019,20.6398788 L217.786019,25.3096416 C217.786019,25.3621406 217.770228,25.4080765 217.738646,25.4474508 C217.707064,25.486825 217.653112,25.5196364 217.576789,25.5458859 C217.500466,25.5721354 217.399143,25.5918222 217.272815,25.604947 C217.146487,25.6180717 216.985948,25.624634 216.791193,25.624634 C216.596438,25.624634 216.435899,25.6180717 216.309571,25.604947 C216.183243,25.5918222 216.081919,25.5721354 216.005596,25.5458859 C215.929273,25.5196364 215.875322,25.486825 215.84374,25.4474508 C215.812158,25.4080765 215.796367,25.3621406 215.796367,25.3096416 L215.796367,18.2853104 C215.796367,18.2328114 215.809526,18.1868755 215.835844,18.1475013 C215.862163,18.108127 215.909535,18.0753156 215.977962,18.0490661 C216.04639,18.0228166 216.134555,18.0031298 216.24246,17.990005 C216.350365,17.9768803 216.485902,17.970318 216.649075,17.970318 C216.817512,17.970318 216.956997,17.9768803 217.067533,17.990005 C217.17807,18.0031298 217.263603,18.0228166 217.324135,18.0490661 C217.384667,18.0753156 217.428092,18.108127 217.45441,18.1475013 C217.480728,18.1868755 217.493887,18.2328114 217.493887,18.2853104 L217.493887,19.096416 C217.883398,18.6764239 218.271586,18.3614347 218.658465,18.1514387 C219.045344,17.9414427 219.449323,17.8364462 219.870415,17.8364462 C220.159916,17.8364462 220.420463,17.8666327 220.652064,17.9270066 C220.883665,17.9873804 221.09026,18.0740025 221.271856,18.1868753 C221.453453,18.2997482 221.610044,18.4349311 221.741635,18.5924281 C221.873227,18.7499251 221.983762,18.9257941 222.073244,19.1200404 C222.28379,18.8942947 222.490385,18.7000513 222.693036,18.5373044 C222.895687,18.3745575 223.095703,18.2419995 223.29309,18.1396265 C223.490477,18.0372534 223.687861,17.961131 223.885248,17.9112569 C224.082635,17.8613829 224.283967,17.8364462 224.489249,17.8364462 C224.957715,17.8364462 225.352483,17.9151936 225.673566,18.0726906 C225.994649,18.2301876 226.25388,18.4441178 226.451267,18.7144876 C226.648654,18.9848575 226.789454,19.3011592 226.873673,19.6634023 C226.957891,20.0256454 227,20.4088824 227,20.8131247 L227,25.3096416 Z" id="width.com" fill="#000000" fill-rule="nonzero"></path>
                    <g id="lines" transform="translate(1.000000, 7.000000)" stroke-linecap="square">
                        <path d="M0.228289166,0.271428571 L226.919431,0.271428571" id="Line" stroke="#FF0000" stroke-dasharray="4"></path>
                        <path d="M0.768573526,18.4571429 L227.459716,18.4571429" id="Line-Copy" stroke="#FF0000" stroke-dasharray="4"></path>
                        <path d="M107.512836,9.22857143 L107.48282,7.05714286 L107.512836,9.22857143 L62.1327014,9.22857143 L107.512836,9.22857143 Z M107.512836,9.22857143 L107.550355,9.22857143 L107.512836,9.22857143 L107.550355,11.9428571 L107.512836,9.22857143 Z M62.0989336,7.05714286 L62.1664692,11.9428571 L62.0989336,7.05714286 Z" id="Line-Copy-5" stroke="#6BACFF"></path>
                        <path d="M107.550355,18.6857143 L227.561019,18.6857143 L107.550355,18.6857143 Z M0.67535545,18.6857143 L62.1327014,18.6857143 L0.67535545,18.6857143 Z" id="Line-Copy-6" stroke="#0070FF" stroke-width="2"></path>
                    </g>
                </g>
            </g>
        </g>
    </g>
</svg>